<svg width="77" height="21" viewBox="0 0 77 21" fill="none" xmlns="http://www.w3.org/2000/svg">
<path d="M10.48 2.50667C10.0356 2.77333 9.63556 3.24444 9.28 3.92C8.94222 4.57778 8.65778 5.34222 8.42667 6.21333C8.19556 7.08444 8.01778 8.01778 7.89333 9.01333C7.78667 9.99111 7.73333 10.9333 7.73333 11.84C7.73333 12.4267 7.76889 13.0844 7.84 13.8133C7.91111 14.5422 8.05333 15.2267 8.26667 15.8667C8.49778 16.5067 8.81778 17.0489 9.22667 17.4933C9.63556 17.92 10.1778 18.1333 10.8533 18.1333C11.5822 18.1333 12.1956 17.8844 12.6933 17.3867C13.1911 16.8711 13.5911 16.2044 13.8933 15.3867C14.2133 14.5511 14.4444 13.6089 14.5867 12.56C14.7289 11.5111 14.8 10.4444 14.8 9.36C14.8 7.63555 14.64 6.23111 14.32 5.14666C14.0178 4.04444 13.6089 3.18222 13.0933 2.56C12.5778 1.93778 11.9733 1.52 11.28 1.30666C10.6044 1.07555 9.88445 0.959998 9.12 0.959998C8.23111 0.959998 7.39556 1.08444 6.61333 1.33333C5.84889 1.58222 5.17333 1.95555 4.58667 2.45333C4.01778 2.95111 3.56444 3.57333 3.22667 4.32C2.90667 5.06667 2.74667 5.93778 2.74667 6.93333C2.74667 7.44889 2.78222 7.86667 2.85333 8.18667C2.92444 8.50667 3.00444 8.76444 3.09333 8.96C3.18222 9.13778 3.27111 9.27111 3.36 9.36C3.46667 9.44889 3.53778 9.50222 3.57333 9.52C2.61333 9.52 1.85778 9.28 1.30667 8.8C0.755556 8.30222 0.48 7.55555 0.48 6.56C0.48 5.65333 0.711111 4.8 1.17333 4C1.65333 3.2 2.30222 2.50666 3.12 1.92C3.93778 1.33333 4.89778 0.87111 6 0.533332C7.10222 0.177776 8.28444 -2.54313e-06 9.54667 -2.54313e-06C11.1822 -2.54313e-06 12.5422 0.284442 13.6267 0.853331C14.7111 1.42222 15.5822 2.17778 16.24 3.12C16.8978 4.04444 17.36 5.11111 17.6267 6.32C17.8933 7.51111 18.0267 8.74667 18.0267 10.0267C18.0267 11.2 17.9111 12.3911 17.68 13.6C17.4667 14.7911 17.0844 15.8756 16.5333 16.8533C15.9822 17.8311 15.2533 18.6311 14.3467 19.2533C13.44 19.8578 12.3022 20.16 10.9333 20.16C10.0444 20.16 9.20889 20.0089 8.42667 19.7067C7.64445 19.4044 6.96 18.9067 6.37333 18.2133C5.78667 17.52 5.31556 16.6133 4.96 15.4933C4.62222 14.3733 4.45333 12.9956 4.45333 11.36C4.45333 10.3467 4.53333 9.30667 4.69333 8.24C4.85333 7.17333 5.11111 6.20444 5.46667 5.33333C5.82222 4.44444 6.29333 3.71555 6.88 3.14667C7.48445 2.57778 8.23111 2.29333 9.12 2.29333C9.31556 2.29333 9.52889 2.31111 9.76 2.34666C9.99111 2.36444 10.2311 2.41778 10.48 2.50667ZM29.9048 15.2267C29.3892 15.9378 28.8559 16.5333 28.3048 17.0133C27.7715 17.4756 27.247 17.8844 26.7315 18.24C26.5359 18.5956 26.287 18.8978 25.9848 19.1467C25.6826 19.3778 25.3537 19.5733 24.9981 19.7333C24.6603 19.8756 24.3137 19.9822 23.9581 20.0533C23.6203 20.1244 23.3092 20.16 23.0248 20.16C22.2426 20.16 21.5937 20.0356 21.0781 19.7867C20.5803 19.5378 20.1803 19.2267 19.8781 18.8533C19.5759 18.4622 19.3626 18.0356 19.2381 17.5733C19.1137 17.0933 19.0515 16.64 19.0515 16.2133C19.0515 15.7511 19.1403 15.3511 19.3181 15.0133C19.5137 14.6578 19.7448 14.4089 20.0115 14.2667C20.4737 12.9333 20.927 11.6178 21.3715 10.32C21.8159 9.00444 22.1092 7.68889 22.2515 6.37333L24.9448 5.84C25.3715 7.52889 25.7181 8.90667 25.9848 9.97333C26.2692 11.04 26.4915 11.9467 26.6515 12.6933C26.8292 13.4222 26.9537 14.0711 27.0248 14.64C27.1137 15.1911 27.1581 15.8044 27.1581 16.48C27.4603 16.2844 27.7448 16.08 28.0115 15.8667C28.2781 15.6356 28.5359 15.4222 28.7848 15.2267H29.9048ZM24.3315 16.2933C24.3315 15.7422 24.2959 15.2533 24.2248 14.8267C24.1715 14.4 24.0826 13.9289 23.9581 13.4133C23.8337 12.8978 23.6737 12.2756 23.4781 11.5467C23.3003 10.8 23.087 9.84889 22.8381 8.69333C22.7315 9.68889 22.5092 10.64 22.1715 11.5467C21.8515 12.4533 21.5581 13.3867 21.2915 14.3467C21.4515 14.4533 21.5848 14.6044 21.6915 14.8C21.8159 14.9778 21.8781 15.2178 21.8781 15.52C21.8781 15.8578 21.7892 16.1156 21.6115 16.2933C21.4337 16.4711 21.2381 16.56 21.0248 16.56C20.7403 16.56 20.5003 16.4356 20.3048 16.1867C20.447 16.8089 20.6959 17.2978 21.0515 17.6533C21.407 17.9911 21.8781 18.16 22.4648 18.16C23.0337 18.16 23.487 18.0178 23.8248 17.7333C24.1626 17.4311 24.3315 16.9511 24.3315 16.2933ZM31.4194 6.66667V15.7333C31.4194 16.6044 31.5705 17.2267 31.8727 17.6C32.1749 17.9556 32.5572 18.1333 33.0194 18.1333C33.2683 18.1333 33.5172 18.0711 33.766 17.9467C34.0149 17.8044 34.2372 17.6089 34.4327 17.36C34.6283 17.1111 34.7883 16.8089 34.9127 16.4533C35.0372 16.0978 35.0994 15.6889 35.0994 15.2267V6.66667H37.766V15.7333C37.766 16.0356 37.7838 16.3289 37.8194 16.6133C37.8549 16.8978 37.926 17.1556 38.0327 17.3867C38.1572 17.6 38.3172 17.7778 38.5127 17.92C38.726 18.0622 38.9927 18.1333 39.3127 18.1333C39.8638 18.1333 40.326 17.9378 40.6994 17.5467C41.0727 17.1378 41.3749 16.6133 41.606 15.9733C41.8549 15.3333 42.0327 14.6222 42.1394 13.84C42.246 13.04 42.2994 12.2489 42.2994 11.4667C42.2994 10.9689 42.2816 10.48 42.246 10C42.2105 9.50222 42.1483 9.05778 42.0594 8.66667C41.9705 8.75555 41.8549 8.81778 41.7127 8.85333C41.5705 8.87111 41.4549 8.88 41.366 8.88C40.9394 8.88 40.6194 8.72889 40.406 8.42667C40.1927 8.12444 40.086 7.80444 40.086 7.46667C40.086 7.11111 40.2016 6.8 40.4327 6.53333C40.6638 6.24889 41.0016 6.10667 41.446 6.10667C41.7483 6.10667 42.0327 6.19555 42.2994 6.37333C42.5838 6.55111 42.8238 6.83555 43.0194 7.22667C43.2327 7.6 43.3927 8.09778 43.4994 8.72C43.6238 9.34222 43.686 10.1067 43.686 11.0133C43.686 12.0267 43.5972 13.0756 43.4194 14.16C43.2594 15.2267 42.9838 16.2044 42.5927 17.0933C42.2016 17.9822 41.6949 18.72 41.0727 19.3067C40.4505 19.8756 39.6772 20.16 38.7527 20.16C38.0594 20.16 37.4016 19.9822 36.7794 19.6267C36.1572 19.2711 35.6949 18.7556 35.3927 18.08C35.0372 18.8089 34.6016 19.3422 34.086 19.68C33.5883 20 33.0638 20.16 32.5127 20.16C31.9972 20.16 31.5083 20.0889 31.046 19.9467C30.5838 19.8044 30.1838 19.5733 29.846 19.2533C29.5083 18.9156 29.2416 18.4889 29.046 17.9733C28.8505 17.44 28.7527 16.7911 28.7527 16.0267V6.66667H31.4194ZM55.2073 6.66667V15.7333C55.2073 15.9111 55.2162 16.1333 55.234 16.4C55.2517 16.6667 55.2962 16.9333 55.3673 17.2C55.4562 17.4489 55.5806 17.6711 55.7406 17.8667C55.9006 18.0444 56.1228 18.1333 56.4073 18.1333C57.2784 18.1333 57.9184 17.1644 58.3273 15.2267H59.314C59.1184 16.3467 58.8695 17.2356 58.5673 17.8933C58.2651 18.5333 57.9451 19.0222 57.6073 19.36C57.2695 19.6978 56.9228 19.9111 56.5673 20C56.2117 20.1067 55.8917 20.16 55.6073 20.16C55.1984 20.16 54.8428 20.0889 54.5406 19.9467C54.2562 19.8044 54.0073 19.6178 53.794 19.3867C53.5984 19.1556 53.4384 18.8889 53.314 18.5867C53.1895 18.2844 53.0917 17.9644 53.0206 17.6267C52.754 18.32 52.3184 18.9156 51.714 19.4133C51.1273 19.9111 50.4073 20.16 49.554 20.16C49.0206 20.16 48.4784 20.0533 47.9273 19.84C47.394 19.6267 46.9051 19.28 46.4606 18.8C46.034 18.3022 45.6784 17.6711 45.394 16.9067C45.1273 16.1244 44.994 15.1733 44.994 14.0533C44.994 13.2356 45.0828 12.3822 45.2606 11.4933C45.4562 10.6044 45.7584 9.79555 46.1673 9.06667C46.5762 8.33778 47.1006 7.73333 47.7406 7.25333C48.3806 6.77333 49.154 6.53333 50.0606 6.53333C50.274 6.53333 50.4962 6.56 50.7273 6.61333C50.9762 6.64889 51.2073 6.72 51.4206 6.82667C51.6517 6.93333 51.8651 7.08444 52.0606 7.28C52.2562 7.45778 52.4162 7.68 52.5406 7.94667V6.66667H55.2073ZM50.2206 18.1333C50.4873 18.1333 50.754 18.0622 51.0206 17.92C51.3051 17.76 51.554 17.5556 51.7673 17.3067C51.9984 17.04 52.1851 16.7289 52.3273 16.3733C52.4695 16.0178 52.5406 15.6356 52.5406 15.2267V9.14667C52.4162 8.86222 52.2206 8.60444 51.954 8.37333C51.7051 8.12444 51.3762 8 50.9673 8C50.3984 8 49.9095 8.19555 49.5006 8.58667C49.0917 8.96 48.7628 9.44 48.514 10.0267C48.2651 10.5956 48.0784 11.2267 47.954 11.92C47.8473 12.5956 47.794 13.2444 47.794 13.8667C47.794 15.3956 47.9984 16.4889 48.4073 17.1467C48.834 17.8044 49.4384 18.1333 50.2206 18.1333ZM61.0033 1.33333V15.7333C61.0033 15.9111 61.0122 16.1333 61.03 16.4C61.0478 16.6667 61.0922 16.9333 61.1633 17.2C61.2522 17.4489 61.3767 17.6711 61.5367 17.8667C61.6967 18.0444 61.9189 18.1333 62.2033 18.1333C63.0744 18.1333 63.7144 17.1644 64.1233 15.2267H65.11C64.9144 16.3467 64.6656 17.2356 64.3633 17.8933C64.0611 18.5333 63.7411 19.0222 63.4033 19.36C63.0656 19.6978 62.7189 19.9111 62.3633 20C62.0078 20.1067 61.6878 20.16 61.4033 20.16C60.7811 20.16 60.2744 20.0444 59.8833 19.8133C59.4922 19.5644 59.1811 19.2533 58.95 18.88C58.7189 18.5067 58.5589 18.0889 58.47 17.6267C58.3811 17.1644 58.3367 16.72 58.3367 16.2933V1.70666L61.0033 1.33333ZM73.9052 1.33333V15.7333C73.9052 15.9467 73.9141 16.1956 73.9319 16.48C73.9497 16.7467 73.9941 17.0044 74.0652 17.2533C74.1541 17.5022 74.2785 17.7156 74.4385 17.8933C74.6163 18.0533 74.8652 18.1333 75.1852 18.1333C75.3274 18.1333 75.4785 18.1156 75.6385 18.08C75.8163 18.0444 75.9585 18.0089 76.0652 17.9733C76.083 18.0622 76.0919 18.1422 76.0919 18.2133C76.1097 18.2844 76.1185 18.3644 76.1185 18.4533C76.1185 18.9867 75.9141 19.4044 75.5052 19.7067C75.0963 20.0089 74.6341 20.16 74.1185 20.16C73.5674 20.16 73.0697 19.9733 72.6252 19.6C72.1808 19.2089 71.8785 18.56 71.7185 17.6533C71.4519 18.3467 71.0163 18.9422 70.4119 19.44C69.8074 19.92 69.0785 20.16 68.2252 20.16C67.6919 20.16 67.1497 20.0533 66.5985 19.84C66.0652 19.6089 65.5852 19.2533 65.1585 18.7733C64.7319 18.2933 64.3763 17.6711 64.0919 16.9067C63.8252 16.1422 63.6919 15.2178 63.6919 14.1333C63.6919 13.2978 63.7808 12.4356 63.9585 11.5467C64.1541 10.64 64.4474 9.82222 64.8385 9.09333C65.2474 8.34667 65.7719 7.73333 66.4119 7.25333C67.0519 6.77333 67.8163 6.53333 68.7052 6.53333C69.1674 6.53333 69.6385 6.63111 70.1185 6.82667C70.6163 7.02222 70.9897 7.39555 71.2385 7.94667V1.70666L73.9052 1.33333ZM68.7852 18.1333C69.123 18.1333 69.443 18.0533 69.7452 17.8933C70.0474 17.7333 70.3052 17.52 70.5185 17.2533C70.7497 16.9867 70.9274 16.6844 71.0519 16.3467C71.1763 15.9911 71.2385 15.6178 71.2385 15.2267V9.14667C71.1141 8.84444 70.9274 8.57778 70.6785 8.34667C70.4297 8.11555 70.0741 8 69.6119 8C69.043 8 68.563 8.19555 68.1719 8.58667C67.7808 8.96 67.4608 9.44 67.2119 10.0267C66.963 10.6133 66.7763 11.2711 66.6519 12C66.5452 12.7111 66.4919 13.3956 66.4919 14.0533C66.4919 15.4933 66.7141 16.5333 67.1585 17.1733C67.603 17.8133 68.1452 18.1333 68.7852 18.1333Z" fill="white"/>
</svg>
