<svg width="88" height="13" viewBox="0 0 88 13" fill="none" xmlns="http://www.w3.org/2000/svg">
<path d="M0.759877 10V0.230153H6.13932V10H4.77637V1.20714H2.12283V10H0.759877ZM9.47151 10.0965C8.95689 10.0965 8.55081 9.99196 8.2533 9.78289C7.95578 9.57383 7.74269 9.27631 7.61403 8.89034C7.49342 8.50437 7.43311 8.05005 7.43311 7.52738V5.50105C7.43311 4.97838 7.49342 4.52406 7.61403 4.13809C7.74269 3.75212 7.95578 3.4546 8.2533 3.24554C8.55081 3.03647 8.95689 2.93194 9.47151 2.93194C9.98614 2.93194 10.3882 3.03647 10.6777 3.24554C10.9752 3.4546 11.1843 3.75212 11.3049 4.13809C11.4335 4.52406 11.4979 4.97838 11.4979 5.50105V7.52738C11.4979 8.05005 11.4335 8.50437 11.3049 8.89034C11.1843 9.27631 10.9752 9.57383 10.6777 9.78289C10.3882 9.99196 9.98614 10.0965 9.47151 10.0965ZM9.47151 9.14363C9.72078 9.14363 9.89367 9.07126 9.99016 8.92652C10.0947 8.78178 10.155 8.59282 10.1711 8.35963C10.1952 8.1184 10.2073 7.86913 10.2073 7.61182V5.42868C10.2073 5.16332 10.1952 4.91405 10.1711 4.68086C10.155 4.44767 10.0947 4.25871 9.99016 4.11397C9.89367 3.96119 9.72078 3.8848 9.47151 3.8848C9.22224 3.8848 9.04534 3.96119 8.9408 4.11397C8.83627 4.25871 8.77194 4.44767 8.74782 4.68086C8.73174 4.91405 8.7237 5.16332 8.7237 5.42868V7.61182C8.7237 7.86913 8.73174 8.1184 8.74782 8.35963C8.77194 8.59282 8.83627 8.78178 8.9408 8.92652C9.04534 9.07126 9.22224 9.14363 9.47151 9.14363ZM12.6413 10L12.7137 3.02843H13.6666L15.2104 7.31028L16.7664 3.02843H17.7192L17.7916 10H16.7061V5.83877L15.4155 9.31249H15.0175L13.7269 5.86289V10H12.6413ZM20.9794 10.0965C20.4648 10.0965 20.0587 9.99196 19.7612 9.78289C19.4637 9.57383 19.2506 9.27631 19.122 8.89034C19.0014 8.50437 18.941 8.05005 18.941 7.52738V5.50105C18.941 4.97838 19.0014 4.52406 19.122 4.13809C19.2506 3.75212 19.4637 3.4546 19.7612 3.24554C20.0587 3.03647 20.4648 2.93194 20.9794 2.93194C21.4941 2.93194 21.8961 3.03647 22.1856 3.24554C22.4831 3.4546 22.6922 3.75212 22.8128 4.13809C22.9415 4.52406 23.0058 4.97838 23.0058 5.50105V7.52738C23.0058 8.05005 22.9415 8.50437 22.8128 8.89034C22.6922 9.27631 22.4831 9.57383 22.1856 9.78289C21.8961 9.99196 21.4941 10.0965 20.9794 10.0965ZM20.9794 9.14363C21.2287 9.14363 21.4016 9.07126 21.4981 8.92652C21.6026 8.78178 21.6629 8.59282 21.679 8.35963C21.7031 8.1184 21.7152 7.86913 21.7152 7.61182V5.42868C21.7152 5.16332 21.7031 4.91405 21.679 4.68086C21.6629 4.44767 21.6026 4.25871 21.4981 4.11397C21.4016 3.96119 21.2287 3.8848 20.9794 3.8848C20.7302 3.8848 20.5533 3.96119 20.4487 4.11397C20.3442 4.25871 20.2799 4.44767 20.2558 4.68086C20.2397 4.91405 20.2316 5.16332 20.2316 5.42868V7.61182C20.2316 7.86913 20.2397 8.1184 20.2558 8.35963C20.2799 8.59282 20.3442 8.78178 20.4487 8.92652C20.5533 9.07126 20.7302 9.14363 20.9794 9.14363ZM30.2765 11.773L30.168 10H24.1855V3.02843H25.4278V9.08332H26.6581V3.02843H27.9004V9.08332H29.1307V3.02843H30.373V9.08332H31.2173V11.773H30.2765ZM32.1951 10V3.02843H33.4857V5.91114C33.5017 5.91114 33.5218 5.91114 33.546 5.91114C33.5781 5.91114 33.6063 5.91114 33.6304 5.91114C33.6545 5.91114 33.6746 5.91114 33.6907 5.91114C34.1651 5.91918 34.5672 5.95536 34.8969 6.01969C35.2346 6.07598 35.508 6.18051 35.717 6.33329C35.9261 6.47803 36.0789 6.68308 36.1754 6.94843C36.2719 7.20574 36.3201 7.53945 36.3201 7.94954C36.3201 8.32747 36.2719 8.64911 36.1754 8.91446C36.0789 9.17177 35.9221 9.38084 35.705 9.54166C35.4879 9.70248 35.2024 9.81908 34.8486 9.89145C34.4948 9.96382 34.0646 10 33.558 10H32.1951ZM33.4857 9.24012H33.558C33.9681 9.24012 34.2898 9.20394 34.523 9.13157C34.7561 9.0592 34.921 8.93054 35.0175 8.7456C35.114 8.55262 35.1622 8.28324 35.1622 7.93748C35.1622 7.62388 35.118 7.37863 35.0295 7.20172C34.9491 7.01678 34.7963 6.8841 34.5712 6.80369C34.3541 6.71524 34.0365 6.67102 33.6183 6.67102C33.6103 6.67102 33.5902 6.67102 33.558 6.67102C33.5259 6.67102 33.5017 6.67102 33.4857 6.67102V9.24012ZM39.9573 10V3.02843H44.01V10H42.7194V4.00542H41.2479V10H39.9573ZM47.2345 10.0965C46.7199 10.0965 46.3138 9.99196 46.0163 9.78289C45.7188 9.57383 45.5057 9.27631 45.377 8.89034C45.2564 8.50437 45.1961 8.05005 45.1961 7.52738V5.50105C45.1961 4.97838 45.2564 4.52406 45.377 4.13809C45.5057 3.75212 45.7188 3.4546 46.0163 3.24554C46.3138 3.03647 46.7199 2.93194 47.2345 2.93194C47.7491 2.93194 48.1512 3.03647 48.4406 3.24554C48.7382 3.4546 48.9472 3.75212 49.0678 4.13809C49.1965 4.52406 49.2608 4.97838 49.2608 5.50105V7.52738C49.2608 8.05005 49.1965 8.50437 49.0678 8.89034C48.9472 9.27631 48.7382 9.57383 48.4406 9.78289C48.1512 9.99196 47.7491 10.0965 47.2345 10.0965ZM47.2345 9.14363C47.4838 9.14363 47.6566 9.07126 47.7531 8.92652C47.8577 8.78178 47.918 8.59282 47.9341 8.35963C47.9582 8.1184 47.9702 7.86913 47.9702 7.61182V5.42868C47.9702 5.16332 47.9582 4.91405 47.9341 4.68086C47.918 4.44767 47.8577 4.25871 47.7531 4.11397C47.6566 3.96119 47.4838 3.8848 47.2345 3.8848C46.9852 3.8848 46.8083 3.96119 46.7038 4.11397C46.5993 4.25871 46.5349 4.44767 46.5108 4.68086C46.4947 4.91405 46.4867 5.16332 46.4867 5.42868V7.61182C46.4867 7.86913 46.4947 8.1184 46.5108 8.35963C46.5349 8.59282 46.5993 8.78178 46.7038 8.92652C46.8083 9.07126 46.9852 9.14363 47.2345 9.14363ZM53.9808 10V3.99335H52.6781V3.02843H56.586V3.99335H55.2713V10H53.9808ZM57.2579 11.7489V10.7599C57.5715 10.7599 57.8208 10.7438 58.0057 10.7116C58.1907 10.6875 58.3234 10.6352 58.4038 10.5548C58.4842 10.4825 58.5244 10.3779 58.5244 10.2412C58.5244 10.1689 58.4962 10.008 58.4399 9.75877C58.3837 9.5095 58.3234 9.24414 58.259 8.96271L56.8599 3.02843H58.1625L59.1033 8.23902L60.0079 3.02843H61.3106L59.6461 10.386C59.5737 10.7237 59.4411 10.989 59.2481 11.182C59.0551 11.3831 58.8058 11.5278 58.5003 11.6162C58.2027 11.7047 57.8409 11.7489 57.4147 11.7489H57.2579ZM62.0898 12.2917V3.02843H63.3804V3.58326C63.5332 3.40636 63.7181 3.25358 63.9352 3.12492C64.1523 2.99627 64.4096 2.93194 64.7071 2.93194C65.069 2.93194 65.3544 3.02843 65.5635 3.22141C65.7806 3.40636 65.9414 3.64357 66.046 3.93305C66.1505 4.21448 66.2189 4.50396 66.251 4.80148C66.2832 5.09095 66.2993 5.34023 66.2993 5.54929V7.23791C66.2993 7.72841 66.251 8.19479 66.1545 8.63705C66.058 9.07126 65.8811 9.42507 65.6238 9.69846C65.3745 9.96382 65.0207 10.0965 64.5624 10.0965C64.3131 10.0965 64.092 10.0362 63.899 9.91557C63.706 9.78691 63.5332 9.64217 63.3804 9.48135V12.2917H62.0898ZM64.3091 9.08332C64.5343 9.08332 64.6951 9.00291 64.7916 8.84209C64.8881 8.67323 64.9484 8.44808 64.9725 8.16665C64.9966 7.88521 65.0087 7.57563 65.0087 7.23791V5.54929C65.0087 5.25981 64.9926 4.99446 64.9604 4.75323C64.9283 4.50396 64.8599 4.30695 64.7554 4.16221C64.6509 4.01748 64.486 3.94511 64.2609 3.94511C64.092 3.94511 63.9312 3.98129 63.7784 4.05366C63.6256 4.12603 63.4929 4.21046 63.3804 4.30695V8.76972C63.501 8.85817 63.6377 8.93456 63.7905 8.99889C63.9432 9.05518 64.1161 9.08332 64.3091 9.08332ZM67.4727 10V3.02843H68.5583V7.72037L70.657 3.02843H71.6701V10H70.6087V5.27188L68.5221 10H67.4727ZM74.6256 10.1206C74.3039 10.1206 74.0265 10.0764 73.7933 9.98794C73.5601 9.89949 73.3672 9.76279 73.2144 9.57785C73.0616 9.38486 72.949 9.14765 72.8767 8.86622C72.8043 8.58478 72.7681 8.25108 72.7681 7.86511H73.8657C73.8657 8.33953 73.9341 8.68127 74.0708 8.89034C74.2075 9.09941 74.4004 9.20394 74.6497 9.20394C74.8668 9.20394 75.0236 9.14765 75.1201 9.03508C75.2166 8.9225 75.2769 8.76972 75.301 8.57674C75.3252 8.37571 75.3372 8.15458 75.3372 7.91335C75.3372 7.60779 75.293 7.38265 75.2045 7.23791C75.1241 7.08513 74.9794 6.98462 74.7703 6.93637C74.5693 6.88812 74.2879 6.864 73.926 6.864V5.94732C74.4889 5.94732 74.8628 5.86289 75.0477 5.69403C75.2407 5.52517 75.3372 5.24775 75.3372 4.86178C75.3372 4.51602 75.2648 4.26675 75.1201 4.11397C74.9754 3.96119 74.7944 3.8848 74.5773 3.8848C74.3361 3.8848 74.1431 3.96119 73.9984 4.11397C73.8536 4.26675 73.7813 4.57231 73.7813 5.03065H72.6837C72.6837 4.50798 72.7601 4.09387 72.9128 3.78831C73.0737 3.48275 73.2988 3.26564 73.5883 3.13698C73.8858 3.00029 74.2316 2.93194 74.6256 2.93194C75.0598 2.93194 75.4096 3.02039 75.6749 3.19729C75.9483 3.37419 76.1453 3.60738 76.266 3.89686C76.3946 4.1783 76.4589 4.47582 76.4589 4.78942C76.4589 5.19147 76.3946 5.50507 76.266 5.73022C76.1453 5.95536 75.9926 6.11618 75.8076 6.21268C75.6307 6.30917 75.4578 6.36546 75.289 6.38154C75.4659 6.4137 75.6428 6.47401 75.8197 6.56246C76.0046 6.64287 76.1574 6.79967 76.278 7.03286C76.4067 7.25801 76.471 7.61182 76.471 8.09428C76.471 8.75364 76.3182 9.25621 76.0127 9.60197C75.7071 9.94773 75.2447 10.1206 74.6256 10.1206ZM77.4721 10L77.5445 3.02843H78.4973L80.0412 7.31028L81.5972 3.02843H82.55L82.6224 10H81.5368V5.83877L80.2463 9.31249H79.8482L78.5576 5.86289V10H77.4721ZM83.7839 11.7489V10.7599C84.0975 10.7599 84.3468 10.7438 84.5317 10.7116C84.7166 10.6875 84.8493 10.6352 84.9297 10.5548C85.0101 10.4825 85.0503 10.3779 85.0503 10.2412C85.0503 10.1689 85.0222 10.008 84.9659 9.75877C84.9096 9.5095 84.8493 9.24414 84.785 8.96271L83.3859 3.02843H84.6885L85.6293 8.23902L86.5339 3.02843H87.8366L86.1721 10.386C86.0997 10.7237 85.967 10.989 85.774 11.182C85.5811 11.3831 85.3318 11.5278 85.0262 11.6162C84.7287 11.7047 84.3669 11.7489 83.9407 11.7489H83.7839Z" fill="white"/>
</svg>
